<svg id="svg" version="1.1" xmlns="http://www.w3.org/2000/svg" xmlns:xlink="http://www.w3.org/1999/xlink" width="400" height="400" viewBox="0, 0, 400,400"><g id="svgg"><path id="path0" d="M189.600 82.035 C 184.192 82.579,177.016 83.619,176.200 83.975 C 175.760 84.168,174.050 84.592,172.400 84.919 C 168.975 85.596,164.976 86.656,163.800 87.198 C 163.360 87.401,162.250 87.757,161.333 87.990 C 160.417 88.222,159.157 88.679,158.533 89.004 C 157.910 89.329,157.098 89.596,156.729 89.598 C 156.359 89.599,155.819 89.835,155.529 90.123 C 155.238 90.411,154.145 90.884,153.100 91.175 C 152.055 91.466,151.200 91.861,151.200 92.052 C 151.200 92.243,150.992 92.400,150.739 92.400 C 149.812 92.400,139.885 97.562,139.200 98.401 C 139.090 98.535,138.415 98.882,137.700 99.171 C 136.985 99.460,136.400 99.833,136.400 100.000 C 136.400 100.167,135.860 100.527,135.200 100.800 C 134.540 101.073,134.000 101.426,134.000 101.584 C 134.000 101.742,133.543 102.080,132.985 102.334 C 131.964 102.799,131.394 103.209,129.971 104.500 C 129.547 104.885,129.089 105.200,128.953 105.200 C 128.817 105.200,128.052 105.751,127.253 106.425 C 126.454 107.098,125.260 108.103,124.600 108.658 C 122.239 110.643,117.491 115.024,116.257 116.358 C 115.566 117.104,113.920 118.849,112.600 120.235 C 111.280 121.621,110.015 122.990,109.789 123.277 C 109.563 123.565,108.753 124.598,107.989 125.574 C 107.225 126.550,106.330 127.662,106.000 128.045 C 104.454 129.842,102.000 133.474,102.000 133.965 C 102.000 134.204,101.814 134.400,101.587 134.400 C 101.361 134.400,101.058 134.715,100.914 135.100 C 100.668 135.763,100.243 136.453,98.418 139.160 C 97.987 139.798,97.518 140.788,97.374 141.360 C 97.231 141.932,96.985 142.400,96.828 142.400 C 96.457 142.400,92.925 149.466,92.579 150.900 C 92.433 151.505,92.155 152.000,91.962 152.000 C 91.769 152.000,91.408 152.810,91.158 153.800 C 90.909 154.790,90.575 155.600,90.416 155.600 C 90.258 155.600,89.890 156.590,89.600 157.800 C 89.310 159.010,88.950 160.000,88.800 160.000 C 88.650 160.000,88.299 161.035,88.019 162.300 C 87.740 163.565,87.372 164.780,87.203 165.000 C 86.693 165.661,84.421 175.272,84.408 176.820 C 84.404 177.381,84.226 178.014,84.013 178.227 C 83.800 178.440,83.429 181.221,83.189 184.407 C 82.950 187.593,82.584 190.753,82.377 191.428 C 81.884 193.036,81.890 204.699,82.384 206.894 C 82.596 207.832,82.966 211.023,83.206 213.985 C 83.446 216.946,83.784 219.556,83.956 219.785 C 84.128 220.013,84.494 221.730,84.770 223.600 C 85.045 225.470,85.411 227.180,85.583 227.400 C 85.754 227.620,86.119 229.015,86.393 230.500 C 86.666 231.985,87.027 233.200,87.194 233.200 C 87.361 233.200,87.616 233.942,87.762 234.850 C 87.907 235.757,88.380 237.277,88.813 238.228 C 89.246 239.178,89.600 240.156,89.600 240.400 C 89.600 240.644,89.947 241.605,90.371 242.536 C 90.795 243.466,91.264 244.717,91.414 245.314 C 91.564 245.911,91.819 246.400,91.980 246.400 C 92.141 246.400,92.489 247.120,92.753 248.000 C 93.016 248.880,93.376 249.600,93.553 249.600 C 93.729 249.600,94.089 250.320,94.353 251.200 C 94.616 252.080,94.976 252.800,95.153 252.800 C 95.329 252.800,95.689 253.520,95.953 254.400 C 96.216 255.280,96.569 256.000,96.736 256.000 C 96.903 256.000,97.267 256.630,97.546 257.400 C 97.824 258.170,98.184 258.800,98.346 258.800 C 98.507 258.800,98.867 259.430,99.146 260.200 C 99.424 260.970,99.798 261.600,99.977 261.600 C 100.156 261.600,100.527 262.140,100.800 262.800 C 101.073 263.460,101.426 264.000,101.584 264.000 C 101.742 264.000,102.080 264.457,102.334 265.015 C 102.588 265.573,102.976 266.248,103.195 266.515 C 103.413 266.782,104.774 268.530,106.218 270.400 C 107.662 272.270,109.509 274.591,110.322 275.557 C 112.581 278.242,121.948 287.600,122.376 287.600 C 122.584 287.600,122.990 287.915,123.277 288.300 C 123.565 288.685,124.430 289.475,125.200 290.055 C 125.970 290.635,126.990 291.445,127.466 291.855 C 129.887 293.937,133.385 296.400,133.923 296.400 C 134.138 296.400,134.418 296.670,134.545 297.000 C 134.671 297.330,134.953 297.600,135.170 297.600 C 135.513 297.600,136.202 298.013,139.200 300.015 C 140.498 300.882,149.321 305.343,152.600 306.790 C 153.700 307.275,154.960 307.831,155.400 308.025 C 156.388 308.461,159.207 309.481,161.600 310.268 C 162.590 310.593,163.701 311.019,164.070 311.214 C 164.438 311.409,165.923 311.787,167.370 312.054 C 168.816 312.320,170.000 312.665,170.000 312.820 C 170.000 312.975,171.485 313.328,173.300 313.604 C 175.115 313.880,176.780 314.244,177.000 314.412 C 177.220 314.581,179.470 314.927,182.000 315.181 C 184.530 315.435,187.221 315.838,187.979 316.076 C 189.829 316.657,209.371 316.657,211.221 316.076 C 211.979 315.838,214.670 315.435,217.200 315.181 C 219.730 314.927,221.980 314.583,222.200 314.416 C 222.420 314.250,224.040 313.890,225.800 313.616 C 227.560 313.342,229.180 312.983,229.400 312.819 C 229.620 312.654,230.925 312.288,232.300 312.005 C 233.675 311.722,234.800 311.360,234.800 311.200 C 234.800 311.040,235.880 310.680,237.200 310.400 C 238.520 310.120,239.600 309.758,239.600 309.595 C 239.600 309.433,240.140 309.192,240.800 309.060 C 241.460 308.928,242.771 308.469,243.714 308.039 C 244.657 307.610,245.917 307.136,246.514 306.986 C 247.111 306.836,247.600 306.553,247.600 306.357 C 247.600 306.160,247.825 306.003,248.100 306.007 C 248.594 306.014,256.813 302.016,257.200 301.580 C 257.310 301.456,257.985 301.118,258.700 300.829 C 259.415 300.540,260.000 300.167,260.000 300.000 C 260.000 299.833,260.540 299.473,261.200 299.200 C 261.860 298.927,262.400 298.578,262.400 298.426 C 262.400 298.274,263.030 297.902,263.800 297.600 C 264.570 297.298,265.200 296.900,265.200 296.715 C 265.200 296.531,265.650 296.209,266.200 296.000 C 266.750 295.791,267.200 295.435,267.200 295.210 C 267.200 294.984,267.399 294.800,267.642 294.800 C 267.885 294.800,268.650 294.352,269.342 293.804 C 270.034 293.255,271.018 292.490,271.530 292.104 C 273.151 290.877,274.872 289.438,276.198 288.200 C 276.905 287.540,278.630 286.010,280.030 284.800 C 282.993 282.240,284.487 280.734,285.948 278.831 C 286.527 278.078,287.687 276.728,288.526 275.831 C 290.861 273.336,290.937 273.244,293.754 269.400 C 295.206 267.420,296.533 265.620,296.704 265.400 C 296.875 265.180,297.592 264.100,298.297 263.000 C 299.002 261.900,299.729 260.820,299.912 260.600 C 300.095 260.380,300.503 259.615,300.820 258.900 C 301.136 258.185,301.517 257.600,301.667 257.600 C 301.816 257.600,302.158 256.925,302.427 256.100 C 302.696 255.275,303.050 254.510,303.213 254.400 C 303.613 254.131,306.000 249.044,306.000 248.461 C 306.000 248.208,306.166 248.000,306.369 248.000 C 306.572 248.000,306.955 247.325,307.221 246.500 C 307.487 245.675,307.839 244.820,308.003 244.600 C 308.168 244.380,308.436 243.750,308.599 243.200 C 308.762 242.650,309.218 241.480,309.611 240.600 C 310.005 239.720,310.454 238.325,310.608 237.500 C 310.763 236.675,311.024 236.000,311.190 236.000 C 311.355 236.000,311.722 234.875,312.005 233.500 C 312.288 232.125,312.656 230.820,312.822 230.600 C 312.989 230.380,313.334 229.030,313.589 227.600 C 313.844 226.170,314.205 224.714,314.390 224.364 C 314.576 224.014,314.942 221.944,315.203 219.764 C 315.465 217.584,315.848 215.440,316.053 215.000 C 317.102 212.756,317.102 185.644,316.053 183.400 C 315.848 182.960,315.464 180.800,315.200 178.600 C 314.936 176.400,314.606 174.420,314.466 174.200 C 314.326 173.980,313.913 172.450,313.547 170.800 C 312.580 166.433,311.510 162.630,311.184 162.400 C 311.028 162.290,310.768 161.570,310.605 160.800 C 310.442 160.030,309.970 158.645,309.555 157.722 C 309.140 156.799,308.800 155.926,308.800 155.782 C 308.800 155.639,308.506 154.864,308.147 154.060 C 307.788 153.257,307.135 151.790,306.697 150.800 C 305.315 147.677,302.274 141.688,301.721 141.000 C 301.545 140.780,301.130 140.060,300.800 139.400 C 300.470 138.740,300.020 137.990,299.800 137.733 C 299.580 137.477,298.860 136.355,298.200 135.241 C 297.540 134.127,296.865 133.212,296.700 133.208 C 296.535 133.203,296.400 132.975,296.399 132.700 C 296.399 132.425,295.859 131.570,295.200 130.800 C 294.541 130.030,294.001 129.265,294.001 129.100 C 294.000 128.935,293.685 128.465,293.300 128.056 C 292.915 127.647,292.060 126.623,291.400 125.781 C 290.740 124.939,289.683 123.699,289.052 123.025 C 288.420 122.351,287.431 121.185,286.853 120.432 C 285.448 118.604,278.369 111.600,277.926 111.600 C 277.733 111.600,276.913 110.880,276.104 110.000 C 275.295 109.120,274.401 108.400,274.116 108.400 C 273.832 108.400,273.600 108.246,273.600 108.059 C 273.600 107.871,271.845 106.434,269.700 104.865 C 267.555 103.297,265.603 101.849,265.362 101.649 C 265.122 101.449,264.402 100.991,263.762 100.630 C 263.123 100.270,262.122 99.666,261.539 99.288 C 259.227 97.790,255.246 95.600,254.835 95.600 C 254.596 95.600,254.400 95.427,254.400 95.216 C 254.400 95.005,253.680 94.616,252.800 94.353 C 251.920 94.089,251.200 93.734,251.200 93.564 C 251.200 93.393,250.795 93.130,250.300 92.979 C 249.441 92.717,248.216 92.197,244.200 90.390 C 243.210 89.944,241.860 89.472,241.200 89.340 C 240.540 89.208,240.000 88.967,240.000 88.805 C 240.000 88.642,238.920 88.280,237.600 88.000 C 236.280 87.720,235.200 87.360,235.200 87.200 C 235.200 87.040,234.075 86.678,232.700 86.395 C 231.325 86.112,230.017 85.740,229.793 85.568 C 229.568 85.396,228.128 85.051,226.593 84.802 C 225.057 84.552,223.440 84.178,223.000 83.970 C 222.152 83.570,215.000 82.569,209.000 82.010 C 204.644 81.605,193.731 81.619,189.600 82.035 M211.243 89.646 C 214.189 89.892,216.690 90.218,216.800 90.371 C 216.910 90.525,218.705 90.872,220.788 91.144 C 222.872 91.416,224.672 91.787,224.788 91.969 C 224.905 92.151,226.305 92.519,227.900 92.786 C 229.495 93.054,230.800 93.407,230.800 93.572 C 230.800 93.738,231.798 94.096,233.017 94.369 C 234.236 94.642,235.721 95.119,236.317 95.430 C 236.913 95.741,237.985 96.107,238.700 96.242 C 239.415 96.378,240.000 96.632,240.000 96.808 C 240.000 96.983,240.900 97.357,242.000 97.639 C 243.100 97.921,244.000 98.290,244.000 98.460 C 244.000 98.629,244.720 98.984,245.600 99.247 C 246.480 99.511,247.200 99.849,247.200 99.999 C 247.200 100.149,247.920 100.510,248.800 100.800 C 249.680 101.090,250.400 101.472,250.400 101.648 C 250.400 101.824,251.120 102.184,252.000 102.447 C 252.880 102.711,253.600 103.056,253.600 103.215 C 253.600 103.373,254.140 103.727,254.800 104.000 C 255.460 104.273,256.000 104.622,256.000 104.774 C 256.000 104.926,256.630 105.298,257.400 105.600 C 258.170 105.902,258.800 106.301,258.800 106.487 C 258.800 106.673,259.115 106.941,259.500 107.083 C 259.885 107.225,260.757 107.759,261.438 108.271 C 262.119 108.782,262.794 109.200,262.938 109.200 C 263.082 109.200,263.515 109.483,263.900 109.829 C 265.377 111.157,267.012 112.399,267.282 112.400 C 267.437 112.400,267.998 112.805,268.528 113.300 C 269.058 113.795,270.814 115.370,272.430 116.800 C 276.036 119.991,279.106 123.071,282.000 126.400 C 283.210 127.792,284.605 129.360,285.100 129.884 C 285.595 130.408,286.000 130.989,286.000 131.176 C 286.000 131.363,286.447 131.940,286.993 132.458 C 287.539 132.976,287.989 133.616,287.993 133.880 C 287.997 134.144,288.225 134.504,288.500 134.680 C 289.045 135.029,291.600 138.575,291.600 138.982 C 291.600 139.121,291.783 139.451,292.006 139.717 C 292.858 140.732,294.331 143.153,294.587 143.959 C 294.734 144.421,294.988 144.800,295.152 144.800 C 295.316 144.800,295.698 145.430,296.000 146.200 C 296.302 146.970,296.667 147.600,296.811 147.600 C 296.954 147.600,297.310 148.320,297.600 149.200 C 297.890 150.080,298.279 150.800,298.464 150.800 C 298.649 150.800,298.800 150.975,298.800 151.188 C 298.800 151.402,299.236 152.529,299.769 153.694 C 300.302 154.859,300.861 156.305,301.012 156.906 C 301.163 157.508,301.433 158.000,301.612 158.000 C 301.790 158.000,302.061 158.585,302.214 159.300 C 302.366 160.015,302.814 161.320,303.209 162.200 C 303.604 163.080,304.054 164.475,304.208 165.300 C 304.363 166.125,304.616 166.800,304.771 166.800 C 304.926 166.800,305.290 168.015,305.579 169.500 C 305.868 170.985,306.245 172.380,306.417 172.600 C 306.589 172.820,306.959 174.530,307.239 176.400 C 307.519 178.270,307.873 179.890,308.026 180.000 C 308.374 180.251,309.200 188.617,309.200 191.898 C 309.200 193.248,309.380 194.464,309.600 194.600 C 309.827 194.740,310.000 196.737,310.000 199.224 C 310.000 201.875,309.842 203.600,309.600 203.600 C 309.376 203.600,309.200 204.693,309.200 206.079 C 309.200 209.378,308.376 217.748,308.026 218.000 C 307.873 218.110,307.519 219.730,307.239 221.600 C 306.959 223.470,306.589 225.180,306.417 225.400 C 306.245 225.620,305.868 227.015,305.579 228.500 C 305.290 229.985,304.931 231.200,304.781 231.200 C 304.632 231.200,304.280 232.280,304.000 233.600 C 303.720 234.920,303.355 236.000,303.190 236.000 C 303.024 236.000,302.779 236.588,302.644 237.307 C 302.509 238.026,302.063 239.241,301.653 240.007 C 301.242 240.773,300.778 241.985,300.622 242.700 C 300.465 243.415,300.178 244.000,299.984 244.000 C 299.791 244.000,299.416 244.720,299.153 245.600 C 298.889 246.480,298.536 247.200,298.368 247.200 C 298.200 247.200,297.842 247.875,297.573 248.700 C 297.304 249.525,296.950 250.290,296.787 250.400 C 296.624 250.510,296.195 251.230,295.834 252.000 C 295.133 253.497,294.285 255.027,293.617 256.000 C 293.391 256.330,292.626 257.500,291.918 258.600 C 291.209 259.700,290.515 260.690,290.375 260.800 C 290.234 260.910,289.888 261.439,289.606 261.975 C 289.323 262.511,288.939 263.141,288.753 263.375 C 288.567 263.609,287.506 264.970,286.395 266.400 C 282.731 271.118,281.844 272.111,277.120 276.777 C 271.531 282.298,269.238 284.400,268.805 284.400 C 268.628 284.400,268.060 284.847,267.542 285.393 C 267.024 285.939,266.381 286.389,266.114 286.393 C 265.847 286.397,265.435 286.760,265.200 287.200 C 264.965 287.640,264.503 288.000,264.173 288.000 C 263.844 288.000,263.471 288.270,263.345 288.600 C 263.218 288.930,262.938 289.200,262.723 289.200 C 262.390 289.200,259.007 291.392,258.400 292.001 C 258.290 292.111,257.660 292.471,257.000 292.800 C 256.340 293.129,255.710 293.489,255.600 293.600 C 255.490 293.711,254.860 294.071,254.200 294.400 C 253.540 294.729,252.910 295.099,252.800 295.222 C 252.432 295.634,244.172 299.600,243.683 299.600 C 243.417 299.600,243.200 299.747,243.200 299.928 C 243.200 300.108,242.300 300.500,241.200 300.800 C 240.100 301.100,239.200 301.479,239.200 301.644 C 239.200 301.808,238.210 302.164,237.000 302.435 C 235.790 302.706,234.800 303.054,234.800 303.209 C 234.800 303.364,233.720 303.720,232.400 304.000 C 231.080 304.280,230.000 304.643,230.000 304.807 C 230.000 304.971,228.560 305.339,226.800 305.624 C 225.040 305.910,223.600 306.271,223.600 306.427 C 223.600 306.583,221.755 306.941,219.500 307.224 C 217.245 307.506,215.309 307.871,215.198 308.034 C 214.382 309.231,184.418 309.229,183.601 308.032 C 183.490 307.870,181.555 307.498,179.300 307.205 C 177.045 306.911,175.200 306.545,175.200 306.392 C 175.200 306.239,173.850 305.882,172.200 305.600 C 170.550 305.318,169.200 304.965,169.200 304.817 C 169.200 304.668,168.030 304.314,166.600 304.030 C 165.170 303.746,164.000 303.373,164.000 303.201 C 164.000 303.029,163.412 302.779,162.693 302.644 C 161.974 302.509,160.759 302.063,159.993 301.653 C 159.227 301.242,158.015 300.778,157.300 300.622 C 156.585 300.465,156.000 300.194,156.000 300.020 C 156.000 299.846,155.190 299.477,154.200 299.200 C 153.210 298.923,152.400 298.568,152.400 298.412 C 152.400 298.256,151.680 297.890,150.800 297.600 C 149.920 297.310,149.200 296.921,149.200 296.736 C 149.200 296.551,148.955 296.400,148.656 296.400 C 148.357 296.400,147.452 295.952,146.645 295.405 C 145.839 294.858,144.747 294.302,144.219 294.169 C 143.690 294.036,143.161 293.674,143.041 293.364 C 142.922 293.054,142.647 292.800,142.430 292.800 C 142.093 292.800,139.943 291.515,138.591 290.506 C 136.502 288.947,134.390 287.600,134.035 287.600 C 133.796 287.600,133.600 287.442,133.600 287.248 C 133.600 287.054,132.637 286.169,131.461 285.281 C 130.284 284.392,128.709 283.106,127.961 282.422 C 127.212 281.739,125.231 279.969,123.559 278.490 C 121.886 277.010,120.136 275.260,119.671 274.600 C 119.205 273.940,118.014 272.590,117.025 271.600 C 116.036 270.610,115.220 269.584,115.213 269.320 C 115.206 269.056,114.943 268.696,114.630 268.520 C 113.900 268.110,110.000 262.970,110.000 262.418 C 110.000 262.188,109.816 262.000,109.590 262.000 C 109.365 262.000,109.009 261.550,108.800 261.000 C 108.591 260.450,108.279 260.000,108.108 260.000 C 107.936 260.000,107.541 259.415,107.230 258.700 C 106.919 257.985,106.548 257.310,106.406 257.200 C 106.263 257.090,105.541 255.920,104.800 254.600 C 104.059 253.280,103.332 252.110,103.184 252.000 C 103.037 251.890,102.696 251.125,102.427 250.300 C 102.158 249.475,101.801 248.800,101.633 248.800 C 101.465 248.800,101.090 248.080,100.800 247.200 C 100.510 246.320,100.121 245.600,99.936 245.600 C 99.751 245.600,99.600 245.392,99.600 245.139 C 99.600 244.885,99.146 243.718,98.591 242.545 C 98.036 241.372,97.474 239.870,97.341 239.206 C 97.209 238.543,96.963 238.000,96.795 238.000 C 96.627 238.000,96.378 237.415,96.242 236.700 C 96.107 235.985,95.735 234.900,95.416 234.289 C 95.097 233.678,94.624 232.103,94.366 230.789 C 94.107 229.475,93.765 228.400,93.605 228.400 C 93.444 228.400,93.078 227.005,92.791 225.300 C 92.503 223.595,92.134 222.109,91.969 221.998 C 91.804 221.887,91.461 219.907,91.206 217.598 C 90.951 215.289,90.558 213.059,90.333 212.643 C 89.742 211.554,89.449 193.728,89.951 189.400 C 90.710 182.851,91.680 176.603,91.970 176.400 C 92.127 176.290,92.489 174.850,92.774 173.200 C 93.060 171.550,93.429 170.020,93.594 169.800 C 93.760 169.580,94.123 168.429,94.401 167.242 C 94.680 166.055,95.152 164.615,95.451 164.042 C 95.750 163.469,95.996 162.765,95.998 162.478 C 95.999 162.191,96.365 161.156,96.810 160.178 C 97.256 159.200,97.728 157.860,97.860 157.200 C 97.992 156.540,98.245 156.000,98.423 156.000 C 98.601 156.000,98.869 155.595,99.020 155.100 C 99.171 154.605,99.723 153.250,100.247 152.088 C 100.771 150.927,101.200 149.802,101.200 149.588 C 101.200 149.375,101.380 149.200,101.600 149.200 C 101.820 149.200,102.000 148.955,102.000 148.656 C 102.000 148.357,102.448 147.452,102.995 146.645 C 103.542 145.839,104.102 144.734,104.238 144.190 C 104.375 143.645,104.657 143.200,104.864 143.200 C 105.072 143.200,105.430 142.660,105.660 142.000 C 105.890 141.340,106.219 140.800,106.391 140.800 C 106.562 140.800,106.927 140.260,107.200 139.600 C 107.473 138.940,107.833 138.400,108.000 138.400 C 108.167 138.400,108.527 137.860,108.800 137.200 C 109.073 136.540,109.425 136.000,109.581 136.000 C 109.737 136.000,110.120 135.510,110.432 134.912 C 110.745 134.314,111.270 133.525,111.600 133.160 C 111.930 132.794,112.560 132.018,113.000 131.434 C 113.440 130.851,114.560 129.524,115.489 128.487 C 116.417 127.449,117.182 126.499,117.189 126.375 C 117.204 126.065,125.830 117.579,127.800 115.936 C 128.680 115.202,129.544 114.376,129.720 114.101 C 129.896 113.825,130.235 113.600,130.474 113.600 C 130.713 113.600,131.317 113.195,131.816 112.700 C 133.161 111.368,133.857 110.848,134.985 110.334 C 135.543 110.080,136.000 109.716,136.000 109.526 C 136.000 109.336,136.450 109.009,137.000 108.800 C 137.550 108.591,138.000 108.235,138.000 108.010 C 138.000 107.784,138.208 107.600,138.462 107.600 C 138.716 107.600,139.481 107.176,140.162 106.658 C 140.843 106.139,141.805 105.587,142.300 105.431 C 142.795 105.274,143.200 104.990,143.200 104.799 C 143.200 104.608,143.830 104.224,144.600 103.946 C 145.370 103.667,146.000 103.329,146.000 103.194 C 146.000 103.060,146.630 102.702,147.400 102.400 C 148.170 102.098,148.800 101.712,148.800 101.541 C 148.800 101.371,149.520 101.016,150.400 100.753 C 151.280 100.489,152.000 100.145,152.000 99.989 C 152.000 99.832,152.810 99.477,153.800 99.200 C 154.790 98.923,155.600 98.563,155.600 98.400 C 155.600 98.237,156.410 97.877,157.400 97.600 C 158.390 97.323,159.200 96.968,159.200 96.812 C 159.200 96.656,160.190 96.290,161.400 96.000 C 162.610 95.710,163.600 95.346,163.600 95.191 C 163.600 95.036,164.680 94.680,166.000 94.400 C 167.320 94.120,168.400 93.764,168.400 93.609 C 168.400 93.455,169.705 93.098,171.300 92.818 C 172.895 92.537,174.380 92.164,174.600 91.989 C 174.820 91.814,176.530 91.463,178.400 91.208 C 180.270 90.953,182.160 90.581,182.600 90.381 C 184.901 89.335,202.182 88.892,211.243 89.646 M195.600 114.400 C 195.600 114.620,195.050 114.800,194.377 114.800 C 192.971 114.800,189.497 115.602,189.200 115.994 C 189.090 116.140,188.145 116.494,187.100 116.782 C 186.055 117.069,185.200 117.443,185.200 117.613 C 185.200 117.783,184.660 118.110,184.000 118.340 C 183.340 118.570,182.800 118.904,182.800 119.082 C 182.800 119.259,182.305 119.624,181.700 119.893 C 180.332 120.499,175.599 125.069,174.832 126.523 C 174.520 127.115,174.137 127.600,173.981 127.600 C 173.825 127.600,173.473 128.140,173.200 128.800 C 172.927 129.460,172.573 130.000,172.415 130.000 C 172.256 130.000,171.898 130.765,171.619 131.700 C 171.340 132.635,170.949 133.502,170.750 133.627 C 170.551 133.752,170.171 134.922,169.905 136.227 C 169.640 137.532,169.238 138.728,169.014 138.884 C 168.445 139.279,168.465 151.940,169.035 152.316 C 169.272 152.472,169.700 153.725,169.987 155.100 C 170.274 156.475,170.636 157.600,170.791 157.600 C 170.946 157.600,171.289 158.320,171.553 159.200 C 171.816 160.080,172.185 160.800,172.373 160.800 C 172.560 160.800,172.815 161.205,172.940 161.700 C 173.366 163.391,178.552 169.181,181.325 171.062 C 182.246 171.687,183.090 172.313,183.200 172.454 C 183.592 172.956,188.684 175.197,190.030 175.459 C 190.784 175.606,191.528 175.922,191.685 176.163 C 192.081 176.769,207.919 176.769,208.315 176.163 C 208.472 175.922,209.216 175.606,209.970 175.459 C 211.316 175.197,216.408 172.956,216.800 172.454 C 216.910 172.313,217.747 171.691,218.660 171.072 C 221.496 169.150,226.625 163.426,227.060 161.700 C 227.185 161.205,227.440 160.800,227.627 160.800 C 227.815 160.800,228.184 160.080,228.447 159.200 C 228.711 158.320,229.054 157.600,229.209 157.600 C 229.364 157.600,229.726 156.475,230.013 155.100 C 230.300 153.725,230.722 152.476,230.952 152.324 C 231.542 151.934,231.533 140.400,230.941 139.161 C 230.689 138.633,230.271 137.165,230.012 135.900 C 229.754 134.635,229.399 133.600,229.223 133.600 C 229.048 133.600,228.677 132.790,228.400 131.800 C 228.123 130.810,227.761 130.000,227.597 130.000 C 227.432 130.000,227.073 129.460,226.800 128.800 C 226.527 128.140,226.175 127.600,226.019 127.600 C 225.863 127.600,225.480 127.113,225.168 126.519 C 224.201 124.677,218.740 119.622,217.700 119.607 C 217.425 119.603,217.200 119.435,217.200 119.233 C 217.200 118.780,212.386 116.400,211.468 116.400 C 211.101 116.400,210.800 116.251,210.800 116.069 C 210.800 115.670,207.211 114.800,205.569 114.800 C 204.926 114.800,204.400 114.620,204.400 114.400 C 204.400 114.158,202.667 114.000,200.000 114.000 C 197.333 114.000,195.600 114.158,195.600 114.400 M207.600 122.772 C 212.706 124.764,215.865 126.995,219.000 130.823 C 221.059 133.337,223.130 137.867,223.445 140.543 C 223.591 141.784,223.865 142.800,224.055 142.800 C 224.519 142.800,224.497 147.830,224.029 148.705 C 223.825 149.087,223.440 150.525,223.174 151.900 C 222.908 153.275,222.564 154.400,222.409 154.400 C 222.254 154.400,221.911 155.120,221.647 156.000 C 221.384 156.880,221.024 157.600,220.848 157.600 C 220.672 157.600,220.320 158.057,220.066 158.615 C 218.903 161.168,213.410 166.172,210.894 166.970 C 210.402 167.126,210.000 167.393,210.000 167.563 C 210.000 167.733,208.965 168.115,207.700 168.413 C 206.435 168.710,205.285 169.122,205.144 169.328 C 205.004 169.535,202.689 169.704,200.000 169.704 C 197.311 169.704,194.996 169.535,194.856 169.328 C 194.715 169.122,193.565 168.710,192.300 168.413 C 191.035 168.115,190.000 167.733,190.000 167.563 C 190.000 167.393,189.598 167.126,189.106 166.970 C 187.886 166.583,184.067 163.750,182.600 162.144 C 180.722 160.088,180.428 159.699,179.934 158.615 C 179.680 158.057,179.334 157.600,179.167 157.600 C 178.999 157.600,178.642 156.925,178.373 156.100 C 178.104 155.275,177.739 154.505,177.561 154.388 C 177.383 154.271,177.008 152.966,176.727 151.488 C 176.447 150.010,176.079 148.800,175.909 148.800 C 175.481 148.800,175.518 142.898,175.947 142.633 C 176.138 142.515,176.420 141.473,176.573 140.318 C 176.913 137.759,179.017 133.244,181.000 130.823 C 184.656 126.358,189.407 123.399,195.400 121.853 C 197.457 121.322,205.422 121.922,207.600 122.772 M189.200 186.445 C 187.550 186.633,185.840 186.951,185.400 187.152 C 184.960 187.353,183.520 187.736,182.200 188.003 C 180.880 188.271,179.620 188.624,179.400 188.789 C 179.180 188.955,178.463 189.219,177.806 189.376 C 177.150 189.533,175.659 190.098,174.494 190.631 C 173.329 191.164,172.217 191.600,172.021 191.600 C 171.826 191.600,171.607 191.735,171.533 191.900 C 171.460 192.065,170.770 192.524,170.000 192.920 C 167.066 194.429,166.400 194.855,166.400 195.222 C 166.400 195.430,166.175 195.600,165.900 195.600 C 165.625 195.601,164.860 196.041,164.200 196.579 C 163.540 197.117,162.495 197.972,161.877 198.479 C 160.428 199.668,156.068 204.028,154.879 205.477 C 152.350 208.559,152.001 209.022,152.000 209.300 C 152.000 209.465,151.685 209.947,151.300 210.371 C 150.230 211.550,149.852 212.095,149.201 213.400 C 148.871 214.060,148.497 214.690,148.369 214.800 C 148.242 214.910,147.870 215.540,147.542 216.200 C 147.215 216.860,146.741 217.760,146.489 218.200 C 146.237 218.640,145.557 220.080,144.976 221.400 C 144.396 222.720,143.669 224.367,143.361 225.060 C 143.052 225.754,142.800 226.439,142.800 226.582 C 142.800 226.726,142.446 227.622,142.013 228.572 C 141.580 229.523,141.106 231.047,140.960 231.959 C 140.814 232.871,140.555 233.704,140.384 233.810 C 140.212 233.916,139.847 235.262,139.572 236.801 C 139.297 238.341,138.947 239.600,138.794 239.600 C 138.641 239.600,138.295 241.265,138.024 243.300 C 137.753 245.335,137.374 247.360,137.181 247.800 C 136.808 248.650,136.000 257.531,136.000 260.781 C 136.000 262.644,137.455 265.200,138.516 265.200 C 138.701 265.200,139.443 265.650,140.164 266.200 C 140.886 266.750,141.684 267.200,141.938 267.200 C 142.192 267.200,142.400 267.367,142.400 267.571 C 142.400 267.775,142.895 268.197,143.500 268.510 C 145.895 269.749,147.388 270.622,147.884 271.074 C 148.170 271.334,148.809 271.674,149.302 271.828 C 149.796 271.982,150.290 272.231,150.400 272.382 C 150.705 272.799,156.539 275.600,157.104 275.600 C 157.377 275.600,157.600 275.780,157.600 276.000 C 157.600 276.220,157.808 276.400,158.061 276.400 C 158.315 276.400,159.482 276.854,160.655 277.409 C 161.828 277.964,163.330 278.526,163.994 278.659 C 164.657 278.791,165.200 279.029,165.200 279.186 C 165.200 279.343,166.190 279.710,167.400 280.000 C 168.610 280.290,169.600 280.659,169.600 280.819 C 169.600 280.979,170.770 281.330,172.200 281.600 C 173.630 281.870,174.800 282.232,174.800 282.404 C 174.800 282.576,176.330 282.945,178.200 283.223 C 180.070 283.501,181.600 283.850,181.600 283.999 C 181.600 284.316,189.337 285.201,192.100 285.201 C 193.145 285.200,194.000 285.380,194.000 285.600 C 194.000 285.849,196.267 286.000,200.000 286.000 C 203.733 286.000,206.000 285.849,206.000 285.600 C 206.000 285.380,206.855 285.200,207.900 285.201 C 210.663 285.201,218.400 284.316,218.400 283.999 C 218.400 283.850,219.930 283.501,221.800 283.223 C 223.670 282.945,225.200 282.576,225.200 282.404 C 225.200 282.232,226.370 281.870,227.800 281.600 C 229.230 281.330,230.400 280.979,230.400 280.819 C 230.400 280.659,231.390 280.290,232.600 280.000 C 233.810 279.710,234.800 279.343,234.800 279.186 C 234.800 279.029,235.343 278.791,236.006 278.659 C 236.670 278.526,238.172 277.964,239.345 277.409 C 240.518 276.854,241.685 276.400,241.939 276.400 C 242.192 276.400,242.400 276.223,242.400 276.008 C 242.400 275.792,242.895 275.494,243.500 275.345 C 244.631 275.067,249.243 272.810,249.600 272.360 C 249.710 272.221,250.204 271.982,250.698 271.828 C 251.191 271.674,251.830 271.334,252.116 271.074 C 252.612 270.622,254.105 269.749,256.500 268.510 C 257.105 268.197,257.600 267.775,257.600 267.571 C 257.600 267.367,257.808 267.200,258.062 267.200 C 258.316 267.200,259.114 266.750,259.836 266.200 C 260.557 265.650,261.299 265.200,261.484 265.200 C 261.670 265.200,262.335 264.615,262.962 263.901 L 264.102 262.601 263.830 257.601 C 263.681 254.850,263.395 251.610,263.194 250.400 C 262.994 249.190,262.553 246.490,262.215 244.400 C 261.876 242.310,261.428 240.240,261.220 239.800 C 261.012 239.360,260.633 237.920,260.377 236.600 C 260.122 235.280,259.776 234.020,259.609 233.800 C 259.441 233.580,259.175 232.680,259.016 231.800 C 258.857 230.920,258.384 229.445,257.964 228.522 C 257.544 227.599,257.200 226.726,257.200 226.582 C 257.200 226.439,256.948 225.754,256.639 225.060 C 256.331 224.367,255.604 222.720,255.024 221.400 C 254.444 220.080,253.790 218.730,253.571 218.400 C 253.352 218.070,252.882 217.125,252.526 216.300 C 252.170 215.475,251.760 214.800,251.614 214.800 C 251.468 214.800,251.102 214.170,250.800 213.400 C 250.498 212.630,250.100 212.000,249.915 212.000 C 249.731 212.000,249.409 211.550,249.200 211.000 C 248.991 210.450,248.635 210.000,248.410 210.000 C 248.184 210.000,248.000 209.775,248.000 209.500 C 247.999 209.225,247.559 208.460,247.021 207.800 C 246.483 207.140,245.628 206.095,245.121 205.477 C 243.932 204.028,239.572 199.668,238.123 198.479 C 237.505 197.972,236.460 197.117,235.800 196.579 C 235.140 196.041,234.375 195.601,234.100 195.600 C 233.825 195.600,233.600 195.411,233.600 195.179 C 233.600 194.948,233.060 194.570,232.400 194.340 C 231.740 194.110,231.200 193.771,231.200 193.587 C 231.200 193.403,230.570 193.024,229.800 192.746 C 229.030 192.467,228.400 192.095,228.400 191.920 C 228.400 191.744,228.225 191.600,228.012 191.600 C 227.798 191.600,226.671 191.164,225.506 190.631 C 224.341 190.098,222.850 189.533,222.194 189.376 C 221.537 189.219,220.820 188.955,220.600 188.789 C 220.380 188.624,219.120 188.271,217.800 188.003 C 216.480 187.736,215.040 187.358,214.600 187.162 C 212.224 186.103,196.181 185.651,189.200 186.445 M207.800 193.600 C 207.936 193.820,208.658 194.000,209.404 194.000 C 210.958 194.000,214.617 194.682,215.800 195.193 C 216.240 195.382,217.134 195.655,217.786 195.798 C 218.438 195.941,219.705 196.392,220.600 196.800 C 221.495 197.208,222.717 197.664,223.314 197.814 C 223.911 197.964,224.400 198.230,224.400 198.404 C 224.400 198.579,224.895 198.896,225.500 199.109 C 228.962 200.329,235.784 205.838,239.500 210.414 C 240.655 211.836,241.870 213.285,242.200 213.634 C 242.530 213.982,242.800 214.468,242.800 214.714 C 242.800 214.959,243.025 215.304,243.301 215.480 C 243.576 215.656,244.071 216.340,244.400 217.000 C 244.729 217.660,245.113 218.290,245.252 218.400 C 245.750 218.793,248.807 224.929,249.262 226.450 C 249.518 227.303,249.858 228.000,250.019 228.000 C 250.179 228.000,250.422 228.585,250.558 229.300 C 250.693 230.015,251.059 231.088,251.371 231.685 C 251.682 232.282,252.152 233.812,252.415 235.085 C 252.678 236.358,253.034 237.490,253.205 237.600 C 253.376 237.710,253.752 239.240,254.040 241.000 C 254.329 242.760,254.677 244.290,254.814 244.400 C 255.119 244.644,256.000 251.740,256.000 253.953 C 256.000 254.833,256.180 255.664,256.400 255.800 C 257.437 256.441,256.343 260.400,255.129 260.400 C 254.830 260.400,252.197 262.055,251.311 262.800 C 251.041 263.027,250.366 263.385,249.811 263.596 C 249.255 263.807,248.800 264.136,248.800 264.327 C 248.800 264.517,248.080 264.889,247.200 265.153 C 246.320 265.416,245.600 265.771,245.600 265.941 C 245.600 266.112,244.970 266.498,244.200 266.800 C 243.430 267.102,242.800 267.496,242.800 267.675 C 242.800 267.854,242.625 268.000,242.410 268.000 C 242.196 268.000,240.841 268.540,239.400 269.200 C 237.959 269.860,236.604 270.400,236.390 270.400 C 236.175 270.400,236.000 270.566,236.000 270.768 C 236.000 270.971,235.415 271.258,234.700 271.407 C 233.985 271.557,233.012 271.924,232.537 272.224 C 232.063 272.524,230.803 272.986,229.737 273.250 C 228.672 273.514,227.710 273.845,227.600 273.986 C 227.295 274.376,221.088 276.005,216.600 276.872 C 203.196 279.463,189.638 278.895,176.000 275.170 C 174.130 274.660,172.510 274.127,172.400 273.986 C 172.290 273.845,171.328 273.514,170.263 273.250 C 169.197 272.986,167.937 272.524,167.463 272.224 C 166.988 271.924,166.015 271.557,165.300 271.407 C 164.585 271.258,164.000 270.991,164.000 270.812 C 164.000 270.634,163.190 270.249,162.200 269.957 C 161.210 269.665,160.400 269.313,160.400 269.177 C 160.400 269.040,159.680 268.690,158.800 268.400 C 157.920 268.110,157.200 267.757,157.200 267.616 C 157.200 267.476,156.570 267.133,155.800 266.854 C 155.030 266.576,154.400 266.187,154.400 265.990 C 154.400 265.793,153.680 265.416,152.800 265.153 C 151.920 264.889,151.200 264.517,151.200 264.327 C 151.200 264.136,150.745 263.807,150.189 263.596 C 149.634 263.385,148.959 263.027,148.689 262.800 C 147.803 262.055,145.170 260.400,144.871 260.400 C 144.710 260.400,144.268 260.038,143.889 259.595 C 143.147 258.729,142.921 255.600,143.600 255.600 C 143.820 255.600,144.000 254.869,144.000 253.977 C 144.000 251.745,144.879 244.646,145.186 244.400 C 145.323 244.290,145.671 242.760,145.960 241.000 C 146.248 239.240,146.619 237.710,146.784 237.600 C 146.949 237.490,147.324 236.185,147.616 234.700 C 147.908 233.215,148.261 232.000,148.401 232.000 C 148.541 232.000,148.900 231.100,149.200 230.000 C 149.500 228.900,149.864 228.000,150.009 228.000 C 150.154 228.000,150.482 227.303,150.738 226.450 C 151.193 224.929,154.250 218.793,154.748 218.400 C 154.887 218.290,155.271 217.660,155.600 217.000 C 155.929 216.340,156.424 215.656,156.699 215.480 C 156.975 215.304,157.200 214.959,157.200 214.714 C 157.200 214.468,157.465 213.982,157.790 213.634 C 159.018 212.314,160.800 210.085,160.800 209.869 C 160.800 208.626,171.630 200.121,174.500 199.109 C 175.105 198.896,175.600 198.588,175.600 198.424 C 175.600 198.261,176.352 197.901,177.271 197.626 C 178.190 197.351,179.315 196.890,179.771 196.602 C 180.227 196.314,181.230 195.960,182.000 195.816 C 182.770 195.672,183.760 195.395,184.200 195.201 C 185.365 194.687,189.024 194.000,190.596 194.000 C 191.342 194.000,192.064 193.820,192.200 193.600 C 192.351 193.356,195.396 193.200,200.000 193.200 C 204.604 193.200,207.649 193.356,207.800 193.600 " stroke="none" fill="#040404" fill-rule="evenodd"></path><path id="path1" d="" stroke="none" fill="#080404" fill-rule="evenodd"></path><path id="path2" d="" stroke="none" fill="#080404" fill-rule="evenodd"></path><path id="path3" d="" stroke="none" fill="#080404" fill-rule="evenodd"></path><path id="path4" d="" stroke="none" fill="#080404" fill-rule="evenodd"></path></g></svg>